<svg width="271" height="100" viewBox="0 0 271 100" fill="none" xmlns="http://www.w3.org/2000/svg">
<rect width="271" height="100" fill="white"/>
<path d="M1.6733 37.7727V27.9091H40.8636V37.7727H27.3011V73H15.2358V37.7727H1.6733ZM57.8002 27.9091L67.0474 59.7017H67.3997L76.6468 27.9091H90.4735L75.59 73H58.8571L43.9735 27.9091H57.8002Z" fill="#110628"/>
<rect x="109" width="162" height="100" rx="30" fill="url(#paint0_linear_1_2)"/>
<path d="M126.413 73V27.9091H137.311V46.0071H155.079V27.9091H165.955V73H155.079V54.88H137.311V73H126.413ZM200.071 27.9091H210.947V56.9936C210.947 60.3549 210.147 63.2831 208.547 65.7784C206.947 68.259 204.716 70.1818 201.854 71.5469C198.992 72.8973 195.667 73.5724 191.88 73.5724C188.049 73.5724 184.703 72.8973 181.841 71.5469C178.978 70.1818 176.755 68.259 175.169 65.7784C173.584 63.2831 172.792 60.3549 172.792 56.9936V27.9091H183.69V56.0469C183.69 57.6027 184.028 58.9898 184.703 60.2081C185.393 61.4264 186.354 62.3804 187.587 63.0703C188.82 63.7602 190.251 64.1051 191.88 64.1051C193.51 64.1051 194.933 63.7602 196.152 63.0703C197.385 62.3804 198.346 61.4264 199.036 60.2081C199.726 58.9898 200.071 57.6027 200.071 56.0469V27.9091ZM217.778 73V27.9091H236.58C239.956 27.9091 242.782 28.3861 245.057 29.3402C247.347 30.2943 249.064 31.63 250.209 33.3473C251.369 35.0646 251.948 37.0535 251.948 39.3139C251.948 41.0312 251.589 42.5651 250.869 43.9155C250.15 45.2512 249.16 46.3594 247.897 47.2401C246.635 48.1207 245.174 48.7372 243.516 49.0895V49.5298C245.336 49.6179 247.017 50.1096 248.558 51.005C250.114 51.9003 251.361 53.148 252.301 54.7479C253.24 56.3331 253.71 58.2119 253.71 60.3842C253.71 62.8061 253.093 64.9711 251.86 66.8793C250.627 68.7727 248.844 70.2699 246.51 71.3707C244.176 72.4569 241.343 73 238.012 73H217.778ZM228.676 64.2152H235.414C237.777 64.2152 239.516 63.7675 240.632 62.8722C241.762 61.9768 242.327 60.7292 242.327 59.1293C242.327 57.9697 242.055 56.9716 241.512 56.1349C240.969 55.2836 240.199 54.6304 239.2 54.1754C238.202 53.7057 237.006 53.4709 235.612 53.4709H228.676V64.2152ZM228.676 46.4474H234.709C235.898 46.4474 236.955 46.2493 237.879 45.853C238.804 45.4567 239.523 44.8842 240.037 44.1357C240.566 43.3871 240.83 42.4844 240.83 41.4276C240.83 39.9157 240.294 38.7268 239.222 37.8608C238.151 36.9948 236.705 36.5618 234.885 36.5618H228.676V46.4474Z" fill="white"/>
<defs>
<linearGradient id="paint0_linear_1_2" x1="109" y1="2.5" x2="271" y2="100" gradientUnits="userSpaceOnUse">
<stop stop-color="#FF2424"/>
<stop offset="1" stop-color="#6F2FF5"/>
</linearGradient>
</defs>
</svg>
